<svg version="1.2" xmlns="http://www.w3.org/2000/svg" viewBox="0 0 1684 400" width="1684" height="400">
	<title>FPM LOGO - AR-no ّ-ai</title>
	<style>
		.s0 { fill: #999999 } 
		.s1 { fill: #ff8a26 } 
		.s2 { fill: #595b61 } 
	</style>
	<g id="Layer 1">
		<g id="&lt;Group&gt;">
			<path id="&lt;Path&gt;" class="s0" d="m9.2 331.1h502.4v18.5h-502.4z" />
			<path id="&lt;Path&gt;" class="s0" d="m1172.1 331.1h502.5v18.5h-502.5z" />
		</g>
		<path id="&lt;Path&gt;" class="s1" d="m1011.3 195.6v55.2v12.2v21.2q-117.7 17.3-207.5 99.3q-33.3-42.8-97-33.9v-41.5q8.1-0.2 12.5 0.5q57.4 5.5 82.1 52.3q31.1-49 93.2-97.9q0.1-0.1 0.2-0.2q7.7-6 15.9-12q8.1-5.8 16.7-11.6q10.7-7 22.3-13.7q11.6-6.8 24.2-13.2c11.9-5.9 24.3-11.6 37.4-16.7z" />
		<path id="&lt;Path&gt;" class="s2" d="m367.9 15.8h23.7v102.3q0 4-2.9 6.9q-2.8 2.8-7.1 2.8h-34.7h-4h-204.9h-4.2h-29.7q-8.8 13.7-22.3 21.3q-13.5 7.5-29.7 7.5q-12.2 0-23.4-4.5q-11.3-4.6-20-13.3l16.7-16.9q5.3 5.2 12.2 8q7 2.9 14.3 2.9q7.7 0 14.6-3q6.8-3 11.8-8.1q5-5 8-11.8q3-6.7 3-14.4v-28h24v28q0 2.3-0.1 4.4q-0.2 2.1-0.4 4.3h21h4.2h159.7q0-7.7-2.8-14.4q-2.9-6.7-8-11.8q-5.1-5.1-11.9-8.1q-6.7-2.9-14.5-2.9q-4 0-7.9 0.7q-4 0.8-7.5 2.5l-17.5-17.4q7.2-4.7 15.7-7.2q8.5-2.5 17.2-2.5q12.8 0 23.9 4.9q11.1 4.8 19.5 13.1q8.3 8.4 13.1 19.4q4.7 11.1 4.7 23.7h21.2h4h21z" />
		<path id="&lt;Path&gt;" class="s2" d="m412.6 15.5h23.7v112.3h-23.7z" />
		<path id="&lt;Path&gt;" class="s2" d="m551.4 163.7q3.4 3.4 3.4 8.1q0 4.7-3.4 8q-3.3 3.2-8 3.2q-4.8 0-8.1-3.2q-3.4-3.3-3.4-8q0-4.7 3.4-8.1q3.3-3.3 8.1-3.3q4.7 0 8 3.3z" />
		<path id="&lt;Path&gt;" class="s2" d="m583.1 163.7q3.2 3.4 3.2 8.1q0 4.7-3.3 8q-3.4 3.2-8.1 3.2q-4.5 0-7.8-3.2q-3.4-3.3-3.4-8q0-4.7 3.4-8.1q3.3-3.3 8.1-3.3q4.7 0 7.9 3.3z" />
		<path id="&lt;Path&gt;" class="s2" d="m744.9 54.4q-3.3-3.3-3.3-7.8q0-4.7 3.2-8.1q3.2-3.3 7.9-3.3q4.8 0 8.1 3.3q3.4 3.4 3.4 7.8q0 5-3.4 8.2q-3.3 3.3-8.1 3.3q-4.4 0-7.8-3.4z" />
		<path id="&lt;Compound Path&gt;" fill-rule="evenodd" class="s2" d="m927.8 80.5q4.8 11.1 4.8 23.7q0 12.7-4.7 23.6h-300.8q0 3 0.2 7q0.3 4-0.3 7.7q-0.7 3.7-2.8 6.3q-2.1 2.6-6.8 2.6h-116.5q-4.2 0-7-2.9q-2.7-3-2.7-7v-74h23.6v60.3h88.9v-37h23.4v13.4h113.5v-36.7h23.6v36.7h46.4v-88.7h23.4v40.5q7.9-6.4 17.6-9.7q9.7-3.2 19.9-3.2q12.7 0 23.8 4.9q11.2 4.8 19.4 13.1q8.2 8.4 13.1 19.4zm-19 23.7q0-7.7-3-14.5q-3-6.8-8-11.8q-4.9-5-11.8-8q-6.8-2.9-14.5-2.9q-7.7 0-14.4 2.9q-6.7 3-11.8 8.1q-5.1 5.1-8 11.8q-2.8 6.7-2.8 14.4z" />
		<path id="&lt;Compound Path&gt;" fill-rule="evenodd" class="s2" d="m1093.6 15.8h23.6v102.3q0 4-2.9 6.9q-2.8 2.8-7 2.8h-69.1q-8.7 13.7-22.1 21.3q-13.4 7.5-29.6 7.5q-12.2 0-23.3-4.5q-11.2-4.6-19.9-13.3l16.6-16.9q5.5 5.2 12.3 8q6.9 2.9 14.3 2.9q9.9 0 18.4-5q-8.5-0.2-15.9-3.6q-7.5-3.3-12.9-8.9q-5.5-5.6-8.7-13.1q-3.2-7.4-3.2-15.9q0-8.7 3.2-16.2q3.2-7.6 8.9-13.3q5.7-5.7 13.3-9q7.6-3.2 16.3-3.2q8.7 0 16.3 3.4q7.5 3.3 13.1 9q5.6 5.7 8.9 13.4q3.2 7.7 3.2 16.4q0 4.3 0 8.7q0 4.5-0.5 8.7h46.7zm-70.1 67.9q0-3.3-1.7-6q-1.8-2.7-4.4-4.9q-2.6-2.1-5.7-3.3q-3.1-1.2-5.8-1.3q-7.5 0-12.8 5.4q-5.3 5.3-5.3 12.5q0 7.5 5.3 12.8q5.3 5.4 12.8 5.4q3 0 6.1-1.3q3.1-1.2 5.7-3.3q2.6-2.1 4.2-4.9q1.6-2.7 1.6-5.9z" />
		<path id="&lt;Path&gt;" class="s2" d="m1138.1 15.5h23.6v112.3h-23.6z" />
		<path id="&lt;Path&gt;" class="s2" d="m1286.4 67.5h23.8v28q0 12.7-4.7 23.9q-4.7 11.2-13.1 19.4q-8.3 8.2-19.3 13q-11.1 4.8-23.8 4.8q-12.1 0-23.3-4.5q-11.2-4.6-19.9-13.3l16.7-16.9q5.2 5.2 12.1 8q7 2.9 14.2 2.9q7.7 0 14.5-3q6.9-3 11.8-8.1q5-5 8-11.8q3-6.7 3-14.4z" />
		<path id="&lt;Path&gt;" class="s2" d="m1504.2 140.6q3.2 3.4 3.2 7.9q0 4.7-3.2 8q-3.2 3.4-8 3.4q-4.7 0-7.9-3.4q-3.2-3.3-3.2-8q0-4.5 3.2-7.9q3.2-3.3 7.9-3.3q4.8 0 8 3.3z" />
		<path id="&lt;Path&gt;" class="s2" d="m1472.5 140.6q3.4 3.4 3.4 7.9q0 4.7-3.4 8q-3.3 3.4-8.1 3.4q-4.4 0-7.8-3.4q-3.3-3.3-3.3-8q0-4.5 3.3-7.9q3.4-3.3 7.8-3.3q4.8 0 8.1 3.3z" />
		<path id="&lt;Path&gt;" class="s2" d="m1526.3 54.7q-3.2-3.4-3.2-8.1q0-4.7 3.2-8.1q3.2-3.3 7.9-3.3q4.8 0 8.1 3.3q3.4 3.4 3.4 8.1q0 4.7-3.4 8.1q-3.3 3.3-8.1 3.3q-4.7 0-7.9-3.3z" />
		<path id="&lt;Path&gt;" class="s2" d="m1558.1 54.7q-3.2-3.4-3.2-8.1q0-4.7 3.2-8.1q3.2-3.3 7.9-3.3q4.8 0 8 3.3q3.2 3.4 3.2 8.1q0 4.7-3.2 8.1q-3.2 3.3-8 3.3q-4.7 0-7.9-3.3z" />
		<path id="&lt;Path&gt;" class="s2" d="m1607 15.8h23.6v102.3q0 4-2.8 6.9q-2.9 2.8-7.1 2.8h-34.3h-4.2h-65.3h-4h-65.6h-4.2h-111.8v-112.3h23.6v88.7h88.2h4.2h20.9v-36.7h23.6v36.7h21.1h4h21.1v-36.7h23.6v36.7h20.6h4.2h20.6z" />
		<path id="&lt;Path&gt;" class="s2" d="m1651.5 15.5h23.6v112.3h-23.6z" />
	</g>
</svg>